<svg width="25" height="25" version="1.1" viewBox="0 0 6.6146 6.6146" xmlns="http://www.w3.org/2000/svg">
 <g fill="#01acfb">
  <path d="m3.3075 0.24493-0.53456 0.53455a2.5834 2.5834 0 0 1 0.53456-0.05552 2.5834 2.5834 0 0 1 0.53504 0.05601zm-2.1657 0.89714v0.75613a2.5834 2.5834 0 0 1 0.75661-0.75613zm3.5743 0a2.5834 2.5834 0 0 1 0.75662 0.75613v-0.75613zm-3.9359 1.6302-0.53502 0.53504 0.53502 0.53504a2.5834 2.5834 0 0 1-0.0565-0.53504 2.5834 2.5834 0 0 1 0.0565-0.53504zm5.0541 0a2.5834 2.5834 0 0 1 0.0565 0.53504 2.5834 2.5834 0 0 1-0.0565 0.53504l0.53506-0.53504zm-4.6925 1.9441v0.75613h0.75661a2.5834 2.5834 0 0 1-0.75661-0.75613zm4.3309 0a2.5834 2.5834 0 0 1-0.75662 0.75613h0.75662zm-2.6998 1.1182 0.53456 0.53504 0.53504-0.53504a2.5834 2.5834 0 0 1-0.53504 0.05601 2.5834 2.5834 0 0 1-0.53456-0.05601z"/>
  <path d="m4.9254 3.3073c0.027634 0.88031-0.79934 1.6797-1.6785 1.6203-0.80125-0.02225-1.5358-0.71754-1.5579-1.5271-0.047833-0.76673 0.51389-1.539 1.2794-1.6781 0.7232-0.1564 1.541 0.23756 1.82 0.93381 0.089799 0.20449 0.1379 0.4276 0.137 0.65108z"/>
 </g>
</svg>
